<?xml version="1.0" encoding="UTF-8"?>
<svg id="uuid-77c2d349-af8d-4512-a4eb-907da5466b56" data-name="Bloc marque CNP Assurances" xmlns="http://www.w3.org/2000/svg" viewBox="0 0 186.8995 67.9893">
  <defs>
    <style>
      .uuid-57437419-71f7-47a9-ab79-aa5aef59d87e, .uuid-16fc5a04-2e78-450b-a185-32afd2dd36d3, .uuid-89bcd44d-97b5-4aae-bb5e-18aea116744c, .uuid-4c707f5c-9183-4b26-ad29-04460d529c57, .uuid-bd798878-dcba-41b6-bac9-c5541c42e257 {
        stroke-width: 0px;
      }

      .uuid-57437419-71f7-47a9-ab79-aa5aef59d87e, .uuid-bd798878-dcba-41b6-bac9-c5541c42e257 {
        fill: #002364;
      }

      .uuid-16fc5a04-2e78-450b-a185-32afd2dd36d3 {
        fill: #d70064;
      }

      .uuid-89bcd44d-97b5-4aae-bb5e-18aea116744c {
        fill: #fff;
      }

      .uuid-4c707f5c-9183-4b26-ad29-04460d529c57 {
        fill: #39a8e5;
      }

      .uuid-4c707f5c-9183-4b26-ad29-04460d529c57, .uuid-bd798878-dcba-41b6-bac9-c5541c42e257 {
        fill-rule: evenodd;
      }
    </style>
  </defs>
  <g>
    <path class="uuid-bd798878-dcba-41b6-bac9-c5541c42e257" d="M94.8671,0h56.6924v56.6929h-56.6924V0Z"/>
    <rect class="uuid-16fc5a04-2e78-450b-a185-32afd2dd36d3" x="151.5577" y="28.3444" width="6.9052" height="28.3503"/>
    <path class="uuid-4c707f5c-9183-4b26-ad29-04460d529c57" d="M123.122,26.3099c7.3902-9.4931,18.9258-15.5996,31.8887-15.5996s24.498,6.1065,31.8888,15.5996h-9.3731c-5.9472-5.4043-13.8467-8.6982-22.5156-8.6982s-16.5684,3.2939-22.5151,8.6982h-9.3736Z"/>
    <path class="uuid-89bcd44d-97b5-4aae-bb5e-18aea116744c" d="M118.8701,9.5456h-10.4728l-8.517,5.3916c-.1038.0828-.0172.2422.1064.2084l18.9497-5.1329c.0866-.0239.172-.1055.172-.2306,0-.1417-.117-.2366-.2383-.2366Z"/>
    <path class="uuid-89bcd44d-97b5-4aae-bb5e-18aea116744c" d="M109.9807,15.0225c.6669-.0128,1.4479-.3969,1.8044-1.0157l.8245-1.4316-9.5041,2.5751,6.8751-.1277Z"/>
    <path class="uuid-89bcd44d-97b5-4aae-bb5e-18aea116744c" d="M104.1994,6.8174l4.1976,1.9088h6.4299l.5319-.9238c.3193-.5539-.0662-1.2189-.6486-1.2189h-10.4655c-.1422,0-.1765.1742-.0452.2339Z"/>
    <polygon class="uuid-89bcd44d-97b5-4aae-bb5e-18aea116744c" points="119.4677 40.9536 126.2237 49.6402 129.0781 49.6402 129.0781 35.4301 125.9278 35.4301 125.9278 44.1089 119.1718 35.4301 116.3173 35.4301 116.3173 49.6402 119.4677 49.6402 119.4677 40.9536"/>
    <path class="uuid-89bcd44d-97b5-4aae-bb5e-18aea116744c" d="M107.3912,50.0484c2.4261,0,4.5834-1.1494,5.9584-2.9326l-2.5611-1.9522c-2.5249,3.3069-7.6542,1.5256-7.6494-2.6329,0-2.4178,1.9028-4.3807,4.252-4.3807,1.2402,0,2.5903.7314,3.3974,1.749l2.5611-1.9522c-1.375-1.7832-3.5323-2.9326-5.9585-2.9326-9.968.3848-9.9647,14.6511,0,15.0342Z"/>
    <path class="uuid-89bcd44d-97b5-4aae-bb5e-18aea116744c" d="M136.9511,46.2369h4.1992c7.1602-.253,7.1354-10.5443,0-10.8067,0,0-7.3491,0-7.3491,0v14.21h3.1499v-3.4033ZM136.9511,38.5718h4.0327c2.9852.0753,2.9838,4.452,0,4.5274h-4.0327v-4.5274Z"/>
    <g>
      <path class="uuid-57437419-71f7-47a9-ab79-aa5aef59d87e" d="M135.2608,62.6939v-.4451h-1.1375v5.5535h1.1375v-2.8987c0-.4415.0366-1.0006.3613-1.3744.4657-.5361,1.8937-.7274,1.8731.8848,0,0,0,3.3882,0,3.3882h1.1375v-3.4138c0-2.5815-2.3452-2.6866-3.3719-1.6946Z"/>
      <path class="uuid-57437419-71f7-47a9-ab79-aa5aef59d87e" d="M150.1034,62.1056c-1.5529,0-2.6801,1.2343-2.6801,2.9344s1.1284,2.9333,2.6848,2.9333c1.0851,0,1.9493-.473,2.5012-1.3682l-.9823-.5589c-.373.5794-.8325.8489-1.4453.8489-.8057,0-1.4102-.5426-1.5693-1.3939l-.0153-.1077,4.1641.0025c.014-.1117.0225-.2281.0199-.3561-.034-1.6934-1.2009-2.9344-2.6778-2.9344ZM148.6277,64.4899c.2011-.8992.9086-1.3038,1.5459-1.3038.5811,0,1.2313.4046,1.4277,1.3038h-2.9736Z"/>
      <path class="uuid-57437419-71f7-47a9-ab79-aa5aef59d87e" d="M99.2993,62.8336c-.4296-.4828-1.1672-.7262-1.7371-.7262-1.5605,0-2.6929,1.2383-2.6929,2.9438,0,1.666,1.1528,2.9229,2.6821,2.9229.6055,0,1.3441-.2884,1.7477-.7397v.5698h1.1419v-5.5557h-1.1418v.5851ZM97.673,66.8906c-1.0682,0-1.645-.929-1.645-1.9131,0-.94.6407-1.8051,1.634-1.8051,1.0578,0,1.688.8123,1.688,1.8173,0,1.0137-.5767,1.9009-1.6769,1.9009Z"/>
      <path class="uuid-57437419-71f7-47a9-ab79-aa5aef59d87e" d="M130.3399,62.8336c-.4296-.4828-1.1672-.7262-1.737-.7262-1.5605,0-2.6929,1.2383-2.6929,2.9438,0,1.666,1.1528,2.9229,2.6821,2.9229.6055,0,1.3441-.2884,1.7477-.7397v.5698h1.1419v-5.5557h-1.1419v.5851ZM128.7137,66.8906c-1.0683,0-1.645-.929-1.645-1.9131,0-.94.6406-1.8051,1.634-1.8051,1.0578,0,1.688.8123,1.688,1.8173,0,1.0137-.5768,1.9009-1.6769,1.9009Z"/>
      <path class="uuid-57437419-71f7-47a9-ab79-aa5aef59d87e" d="M157.1403,64.5145c-.0776-.0319-.1543-.0629-.231-.0933-.5287-.2113-.9847-.3936-.9847-.7695,0-.2928.3115-.512.5897-.512.5015,0,.7036.5833.7036.5833l.9316-.4805s-.4048-1.1237-1.5645-1.1237c-.9778,0-1.7158.6933-1.7158,1.6131,0,.9797.7675,1.2967,1.4446,1.5757.5483.2266,1.022.4226,1.022.9164,0,.4368-.3282.7419-.798.7419-.7435,0-1.0741-.8864-1.0741-.8864l-.9758.4064s.3766,1.5006,2.0381,1.5006c1.0859,0,1.9359-.8093,1.9359-1.8426,0-.9552-.6682-1.3596-1.3217-1.6293Z"/>
      <path class="uuid-57437419-71f7-47a9-ab79-aa5aef59d87e" d="M110.8653,64.5013c-.0771-.0319-.1533-.0629-.2295-.0933-.5254-.2113-.9785-.3936-.9785-.7695,0-.2928.3096-.512.5859-.512.4984,0,.6992.5832.6992.5832l.9258-.4805s-.4023-1.1237-1.5547-1.1237c-.9717,0-1.7051.6933-1.7051,1.6131,0,.9798.7627,1.2967,1.4355,1.5758.5449.2265,1.0156.4225,1.0156.9164,0,.4368-.3262.7419-.793.7419-.7388,0-1.0674-.8864-1.0674-.8864l-.9697.4063s.3743,1.5006,2.0254,1.5006c1.0791,0,1.9238-.8093,1.9238-1.8426,0-.9551-.6641-1.3596-1.3135-1.6293Z"/>
      <path class="uuid-57437419-71f7-47a9-ab79-aa5aef59d87e" d="M105.2401,64.5013c-.0771-.0319-.1533-.0629-.2295-.0933-.5254-.2113-.9785-.3936-.9785-.7695,0-.2928.3096-.512.5859-.512.4984,0,.6992.5832.6992.5832l.9258-.4805s-.4022-1.1237-1.5547-1.1237c-.9717,0-1.7051.6933-1.7051,1.6131,0,.9798.7627,1.2967,1.4355,1.5758.5449.2265,1.0156.4225,1.0156.9164,0,.4368-.3262.7419-.793.7419-.7388,0-1.0674-.8864-1.0674-.8864l-.9697.4063s.3743,1.5006,2.0254,1.5006c1.0791,0,1.9238-.8093,1.9238-1.8426,0-.9551-.6641-1.3596-1.3135-1.6293Z"/>
      <path class="uuid-57437419-71f7-47a9-ab79-aa5aef59d87e" d="M122.5027,62.6731v-.4341h-1.1392v5.5641h1.1392v-3.2511c0-.9094.303-1.3633.9086-1.3633.2023,0,.4041.0707.6163.222l.5049-1.0097c-.3133-.1924-.6262-.2936-.909-.2936-.4745,0-.7573.1826-1.1208.5657Z"/>
      <path class="uuid-57437419-71f7-47a9-ab79-aa5aef59d87e" d="M117.6054,65.3105c0,1.043-.1862,1.6426-1.0978,1.6426-.9111,0-1.086-.5635-1.086-1.6426v-3.0656h-1.1684v3.2737c0,1.6426.8154,2.4707,2.2544,2.4707,1.5352,0,2.2671-.96,2.2671-2.4707v-3.2737h-1.1693v3.0656Z"/>
      <path class="uuid-57437419-71f7-47a9-ab79-aa5aef59d87e" d="M143.6447,66.9568c-1.0356,0-1.8466-.842-1.8466-1.9172s.811-1.9172,1.8466-1.9172c.8818,0,1.4908.6541,1.4908.6541l.6373-.7513s-.8726-.9065-2.071-.9208c-1.6599-.0199-2.9604,1.2891-2.9645,2.9353h0c.0042,1.6463,1.3046,2.9354,2.9645,2.9354,1.3365,0,2.1368-.9819,2.1368-.9819l-.6373-.7513s-.6589.7151-1.5566.7151Z"/>
    </g>
  </g>
  <g>
    <path class="uuid-57437419-71f7-47a9-ab79-aa5aef59d87e" d="M19.7527,10.7102h2.6227l3.6205,10.5269h-2.4925l-.8175-2.3602h-3.2739l-.8014,2.3602h-2.4905l3.6325-10.5269M22.2873,17.2039l-1.2302-4.0473-1.2603,4.0473h2.4905Z"/>
    <path class="uuid-57437419-71f7-47a9-ab79-aa5aef59d87e" d="M29.8168,21.3814c-.6812,0-1.3344-.1122-1.9595-.3326-.6251-.2224-1.1521-.541-1.5808-.9557l.8115-1.4987c.9597.7033,1.8453,1.0559,2.6568,1.0559.6411,0,.9617-.2024.9617-.6071,0-.2024-.1242-.3626-.3747-.4789-.1282-.0581-.4508-.1663-.9717-.3246-.2845-.0962-.5209-.1783-.7133-.2464-.1903-.0681-.3867-.1483-.5931-.2384-.2044-.0922-.3707-.1783-.4969-.2605-.1242-.0821-.2484-.1783-.3727-.2905-.1222-.1102-.2164-.2284-.2805-.3506-.0661-.1222-.1182-.2645-.1563-.4208-.0401-.1563-.0601-.3286-.0601-.5169,0-.7814.2965-1.4125.8856-1.8934.5891-.4809,1.3765-.7193,2.3662-.7193,1.1821,0,2.1779.3667,2.9914,1.1l-.9196,1.4827c-.8395-.583-1.5728-.8756-2.1939-.8756-.2805,0-.5029.0521-.6692.1523-.1683.1022-.2504.2585-.2504.4708,0,.1984.0862.3506.2605.4568.1743.1062.4929.2244.9537.3546.3586.1102.6552.2064.8856.2865.2304.0781.4668.1723.7073.2765.2424.1082.4328.2164.573.3266.1403.1122.2685.2404.3887.3867.1162.1483.2004.3146.2525.5009.0501.1863.0761.3947.0761.6251,0,.7874-.2865,1.4065-.8575,1.8573-.573.4508-1.3464.6772-2.3202.6772"/>
    <path class="uuid-57437419-71f7-47a9-ab79-aa5aef59d87e" d="M37.18,21.3814c-.6812,0-1.3344-.1122-1.9575-.3326-.6271-.2224-1.1541-.541-1.5828-.9557l.8115-1.4987c.9597.7033,1.8453,1.0559,2.6568,1.0559.6411,0,.9617-.2024.9617-.6071,0-.2024-.1242-.3626-.3747-.4789-.1282-.0581-.4508-.1663-.9697-.3246-.2865-.0962-.5229-.1783-.7153-.2464-.1903-.0681-.3867-.1483-.5931-.2384-.2044-.0922-.3707-.1783-.4969-.2605-.1242-.0821-.2484-.1783-.3707-.2905-.1242-.1102-.2184-.2284-.2825-.3506-.0661-.1222-.1182-.2645-.1563-.4208-.0401-.1563-.0601-.3286-.0601-.5169,0-.7814.2965-1.4125.8856-1.8934.5891-.4809,1.3765-.7193,2.3682-.7193,1.1801,0,2.1759.3667,2.9894,1.1l-.9196,1.4827c-.8395-.583-1.5708-.8756-2.1939-.8756-.2805,0-.5029.0521-.6692.1523-.1683.1022-.2504.2585-.2504.4708,0,.1984.0862.3506.2605.4568.1743.1062.4929.2244.9557.3546.3566.1102.6532.2064.8836.2865.2304.0781.4668.1723.7073.2765.2444.1082.4328.2164.575.3266.1382.1122.2665.2404.3867.3867.1162.1483.2024.3146.2525.5009.0501.1863.0761.3947.0761.6251,0,.7874-.2865,1.4065-.8575,1.8573-.573.4508-1.3464.6772-2.3202.6772"/>
    <path class="uuid-57437419-71f7-47a9-ab79-aa5aef59d87e" d="M41.4857,18.4361v-4.9809h2.3763v4.46c0,.4728.0922.8355.2805,1.09.1903.2525.4568.3807.8034.3807.7153,0,1.2823-.3767,1.7031-1.13v-4.8006h2.3743v5.1412c0,.2364.0361.4027.1102.5029.0761.0982.2064.1543.3887.1703v1.9675c-.3907.0781-.7273.1162-1.0058.1162-.4147,0-.7473-.0842-.9958-.2565-.2484-.1703-.4007-.4167-.4608-.7353l-.0421-.4688c-.6912.9938-1.7231,1.4907-3.0976,1.4907-.7934,0-1.3945-.2504-1.8112-.7534s-.6231-1.2342-.6231-2.1939"/>
    <path class="uuid-57437419-71f7-47a9-ab79-aa5aef59d87e" d="M55.8014,15.4828c-.5951.01-1.122.1082-1.5788.2925-.4588.1863-.7894.4508-.9918.7934v4.6684h-2.3682v-7.782h2.1799v1.5708c.2705-.5149.6151-.9257,1.0359-1.2302.4208-.3045.8615-.4588,1.3324-.4628.2004,0,.3326.004.3907.014v2.1358"/>
    <path class="uuid-57437419-71f7-47a9-ab79-aa5aef59d87e" d="M56.3283,17.3482c0-.539.0942-1.0519.2845-1.5368.1863-.4849.4528-.9156.7974-1.2903.3466-.3727.7854-.6692,1.3184-.8896.533-.2204,1.124-.3286,1.7692-.3286.6432,0,1.2282.1082,1.7612.3286.5289.2204.9677.5169,1.3164.8896.3486.3747.6171.8054.8054,1.2903.1863.4849.2805.9978.2805,1.5368,0,.537-.0942,1.0479-.2805,1.5327-.1883.4849-.4568.9136-.8014,1.2843-.3466.3727-.7834.6672-1.3144.8876-.531.2184-1.12.3286-1.7672.3286-.6452,0-1.2362-.1102-1.7692-.3286-.533-.2204-.9717-.5149-1.3184-.8876-.3446-.3707-.6111-.7994-.7974-1.2843-.1903-.4849-.2845-.9958-.2845-1.5327M60.4978,19.3838c.4929,0,.9016-.1903,1.2282-.573.3246-.3807.4869-.8676.4869-1.4626,0-.6011-.1603-1.092-.4829-1.4646-.3246-.3747-.7333-.561-1.2322-.561-.4969,0-.9096.1883-1.2402.567-.3306.3787-.4969.8656-.4969,1.4586,0,.6051.1643,1.094.4929,1.4706s.7433.565,1.2442.565Z"/>
    <path class="uuid-57437419-71f7-47a9-ab79-aa5aef59d87e" d="M73.3328,21.2371h-2.3743v-4.3738c0-.4909-.0922-.8595-.2825-1.102-.1883-.2444-.4448-.3667-.7674-.3667-.3326,0-.6652.1322-.9978.3947-.3346.2625-.569.5931-.7113.9878v4.46h-2.3662v-7.782h2.1358v1.3023c.2845-.4628.6892-.8215,1.2122-1.0759.5229-.2525,1.126-.3787,1.8052-.3787,1.5648,0,2.3462.9838,2.3462,2.9533v4.9809"/>
    <path class="uuid-57437419-71f7-47a9-ab79-aa5aef59d87e" d="M77.879,21.3814c-.6812,0-1.3344-.1122-1.9595-.3326-.6251-.2224-1.1521-.541-1.5808-.9557l.8115-1.4987c.9597.7033,1.8453,1.0559,2.6568,1.0559.6411,0,.9617-.2024.9617-.6071,0-.2024-.1242-.3626-.3747-.4789-.1282-.0581-.4508-.1663-.9717-.3246-.2845-.0962-.5209-.1783-.7133-.2464-.1903-.0681-.3867-.1483-.5931-.2384-.2064-.0922-.3707-.1783-.4969-.2605s-.2484-.1783-.3727-.2905c-.1222-.1102-.2164-.2284-.2805-.3506-.0661-.1222-.1182-.2645-.1563-.4208-.0401-.1563-.0601-.3286-.0601-.5169,0-.7814.2965-1.4125.8856-1.8934.5891-.4809,1.3765-.7193,2.3662-.7193,1.1821,0,2.1779.3667,2.9914,1.1l-.9196,1.4827c-.8395-.583-1.5728-.8756-2.1939-.8756-.2805,0-.5029.0521-.6692.1523-.1683.1022-.2504.2585-.2504.4708,0,.1984.0862.3506.2605.4568.1743.1062.4929.2244.9537.3546.3586.1102.6552.2064.8856.2865.2304.0781.4668.1723.7073.2765.2424.1082.4328.2164.575.3266.1382.1122.2665.2404.3867.3867.1162.1483.2004.3146.2525.5009.0501.1863.0761.3947.0761.6251,0,.7874-.2865,1.4065-.8575,1.8573-.573.4508-1.3464.6772-2.3202.6772"/>
    <path class="uuid-57437419-71f7-47a9-ab79-aa5aef59d87e" d="M9.6226,36.1659v-4.9809h2.3763v4.46c0,.4728.0922.8355.2805,1.09.1903.2525.4568.3807.8054.3807.7133,0,1.2803-.3787,1.7011-1.13v-4.8006h2.3743v5.1412c0,.2344.0361.4027.1102.5029.0761.0982.2064.1543.3887.1703v1.9675c-.3907.0761-.7273.1162-1.0058.1162-.4147,0-.7473-.0862-.9958-.2565-.2484-.1723-.4007-.4167-.4608-.7353l-.0421-.4688c-.6912.9938-1.7231,1.4907-3.0976,1.4907-.7934,0-1.3945-.2504-1.8092-.7534-.4167-.5009-.6251-1.2342-.6251-2.1939"/>
    <path class="uuid-57437419-71f7-47a9-ab79-aa5aef59d87e" d="M26.4988,38.9689h-2.3743v-4.3738c0-.4909-.0922-.8595-.2825-1.102-.1883-.2444-.4448-.3667-.7674-.3667-.3326,0-.6652.1322-.9978.3947-.3346.2625-.569.5931-.7113.9878v4.46h-2.3662v-7.782h2.1358v1.3023c.2845-.4628.6892-.8215,1.2122-1.0739.5249-.2545,1.126-.3807,1.8052-.3807,1.5648,0,2.3462.9838,2.3462,2.9533v4.9809"/>
    <path class="uuid-57437419-71f7-47a9-ab79-aa5aef59d87e" d="M43.8239,38.9689h-2.3683v-4.3738c0-.4909-.0902-.8595-.2685-1.102-.1823-.2444-.4268-.3667-.7373-.3667-.3226,0-.6351.1302-.9357.3907-.3025.2605-.5209.5911-.6572.9918v4.46h-2.3663v-4.3738c0-.4909-.0922-.8595-.2745-1.102-.1843-.2444-.4308-.3667-.7393-.3667-.3166,0-.6311.1302-.9337.3907-.3025.2605-.5209.5911-.6512.9918v4.46h-2.3682v-7.782h2.1378v1.3023c.2825-.4668.6732-.8275,1.1681-1.0779s1.0619-.3767,1.7031-.3767c.6091,0,1.09.1403,1.4466.4208.3546.2785.5891.6432.7053,1.092.2985-.4829.6912-.8555,1.1781-1.118.4909-.2625,1.0399-.3947,1.653-.3947,1.5388,0,2.3081.9838,2.3081,2.9533v4.9809"/>
    <path class="uuid-57437419-71f7-47a9-ab79-aa5aef59d87e" d="M44.9179,35.08c0-.539.0942-1.0519.2845-1.5368.1863-.4849.4528-.9156.7974-1.2903.3466-.3727.7854-.6692,1.3184-.8896.533-.2184,1.124-.3286,1.7692-.3286.6432,0,1.2282.1102,1.7612.3286.531.2204.9677.5169,1.3164.8896.3486.3747.6171.8054.8054,1.2903.1863.4849.2805.9978.2805,1.5368,0,.537-.0942,1.0479-.2805,1.5327-.1883.4849-.4568.9116-.8014,1.2843-.3466.3707-.7834.6672-1.3144.8876-.531.2184-1.12.3286-1.7672.3286-.6452,0-1.2362-.1102-1.7692-.3286-.533-.2204-.9717-.5169-1.3184-.8876-.3446-.3727-.6111-.7994-.7974-1.2843-.1903-.4849-.2845-.9958-.2845-1.5327M49.0873,37.1156c.4929,0,.9016-.1923,1.2282-.573.3246-.3807.4869-.8696.4869-1.4626,0-.6011-.1603-1.092-.4829-1.4646-.3246-.3747-.7333-.561-1.2322-.561-.4969,0-.9096.1883-1.2402.567-.3306.3787-.4969.8656-.4969,1.4586,0,.6031.1643,1.094.4929,1.4706s.7433.565,1.2442.565Z"/>
    <path class="uuid-57437419-71f7-47a9-ab79-aa5aef59d87e" d="M61.9224,38.9689h-2.3743v-4.3738c0-.4909-.0922-.8595-.2825-1.102-.1883-.2444-.4448-.3667-.7674-.3667-.3326,0-.6652.1322-.9978.3947-.3346.2625-.569.5931-.7093.9878v4.46h-2.3682v-7.782h2.1358v1.3023c.2845-.4628.6892-.8215,1.2122-1.0739.5249-.2545,1.126-.3807,1.8052-.3807,1.5648,0,2.3462.9838,2.3462,2.9533v4.9809"/>
    <path class="uuid-57437419-71f7-47a9-ab79-aa5aef59d87e" d="M63.0444,35.0679c0-.7493.1443-1.4306.4348-2.0437.2905-.6131.6972-1.098,1.2222-1.4546.5269-.3566,1.12-.535,1.7812-.535.537,0,1.0258.1262,1.4646.3827.4428.2565.7854.6051,1.0258,1.0419v-4.3137h2.3763v8.1827c0,.2344.0361.4027.1102.5009.0741.0982.2064.1563.3967.1703v1.9695c-.3827.0761-.7213.1142-1.0138.1142-.4107,0-.7413-.0862-.9918-.2625-.2525-.1763-.4027-.4228-.4568-.7413l-.0441-.4007c-.2645.4708-.6331.8255-1.104,1.0699-.4688.2444-.9778.3647-1.5247.3647-.7033,0-1.3384-.1763-1.8994-.5289-.561-.3506-.9998-.8355-1.3103-1.4506-.3126-.6151-.4668-1.3063-.4668-2.0657M68.987,36.0297v-1.6289c-.1483-.3907-.3867-.7133-.7153-.9657-.3286-.2545-.6712-.3807-1.0278-.3807-.5029,0-.9196.2044-1.2522.6111-.3346.4087-.5009.8916-.5009,1.4526,0,.579.1763,1.0559.5289,1.4326.3506.3767.7994.565,1.3404.565.3266,0,.6432-.1002.9437-.2965.3025-.1984.5289-.4608.6832-.7894Z"/>
    <path class="uuid-57437419-71f7-47a9-ab79-aa5aef59d87e" d="M76.9072,39.1132c-.6371,0-1.2222-.1082-1.7551-.3226-.533-.2144-.9757-.5029-1.3244-.8656-.3506-.3606-.6211-.7794-.8155-1.2603-.1923-.4769-.2905-.9778-.2905-1.5047,0-.559.0962-1.09.2865-1.5888.1923-.4989.4608-.9377.8074-1.3144.3486-.3767.7894-.6732,1.3224-.8936.533-.2204,1.122-.3286,1.7692-.3286s1.2362.1082,1.7672.3286c.531.2204.9677.5149,1.3104.8876.3426.3707.6071.7974.7934,1.2763.1843.4809.2785.9898.2785,1.5247,0,.2464-.02.5009-.0601.7594h-5.7543c.0341.4989.2184.8896.555,1.1721.3346.2865.7293.4268,1.1821.4268.3566,0,.6932-.0862,1.0058-.2605.3166-.1723.5269-.3967.6391-.6712l2.0196.565c-.3146.6251-.7974,1.128-1.4486,1.5047s-1.4145.565-2.2881.565M75.1842,34.3567h3.3821c-.0481-.4869-.2284-.8796-.539-1.1741-.3126-.2925-.6952-.4408-1.1481-.4408-.4588,0-.8435.1483-1.1541.4408-.3126.2945-.4929.6872-.541,1.1741Z"/>
    <path class="uuid-57437419-71f7-47a9-ab79-aa5aef59d87e" d="M2.3682,55.4405v4.4159H0v-10.9396h2.0577v1.2603c.6071-.9417,1.4787-1.4105,2.6127-1.4105.6852,0,1.3043.1763,1.8573.533.553.3526.9818.8355,1.2923,1.4506.3086.6131.4628,1.2903.4628,2.0337,0,1.1641-.3166,2.1298-.9517,2.9032s-1.4366,1.1581-2.4083,1.1581c-.579,0-1.09-.1222-1.5287-.3687-.4428-.2464-.7854-.5911-1.0258-1.0359M5.8725,52.7697c0-.575-.1763-1.0479-.529-1.4225-.3506-.3747-.7994-.561-1.3404-.561-.3286,0-.6432.0962-.9457.2885-.3065.1943-.535.4528-.6892.7754v1.6009c.1583.3987.4007.7333.7273.9978.3246.2665.6672.3987,1.0238.3987.5029,0,.9196-.2044,1.2542-.6131.3326-.4067.4989-.8956.4989-1.4646Z"/>
    <path class="uuid-57437419-71f7-47a9-ab79-aa5aef59d87e" d="M9.4563,45.8773h2.3682v8.0504c0,.6031.2264.9056.6792.9056.2665,0,.553-.0741.8615-.2244l.3106,1.7812c-.2925.1342-.6351.2424-1.0218.3226-.3907.0781-.7493.1202-1.0819.1202-.6772,0-1.1982-.1803-1.5668-.537-.3647-.3586-.549-.8676-.549-1.5348v-8.8839"/>
    <path class="uuid-57437419-71f7-47a9-ab79-aa5aef59d87e" d="M14.3731,53.8997v-4.9809h2.3763v4.46c0,.4728.0922.8355.2805,1.09.1903.2525.4568.3807.8054.3807.7133,0,1.2803-.3787,1.7011-1.13v-4.8006h2.3743v5.1412c0,.2344.0361.4027.1102.5029.0761.0982.2064.1543.3887.1703v1.9675c-.3907.0761-.7273.1162-1.0058.1162-.4147,0-.7473-.0862-.9958-.2565-.2484-.1723-.4007-.4167-.4608-.7353l-.0421-.4708c-.6912.9958-1.7231,1.4927-3.0976,1.4927-.7934,0-1.3965-.2504-1.8112-.7534-.4147-.5009-.6231-1.2342-.6231-2.1939"/>
    <path class="uuid-57437419-71f7-47a9-ab79-aa5aef59d87e" d="M26.7252,56.847c-.6812,0-1.3344-.1122-1.9595-.3326-.6251-.2224-1.1521-.541-1.5808-.9577l.8115-1.4967c.9597.7053,1.8453,1.0579,2.6568,1.0579.6411,0,.9617-.2044.9617-.6091,0-.2044-.1242-.3626-.3747-.4769-.1282-.0601-.4508-.1663-.9717-.3266-.2845-.0962-.5209-.1783-.7133-.2464-.1903-.0681-.3867-.1483-.5931-.2404-.2044-.0902-.3687-.1763-.4969-.2585-.1242-.0821-.2484-.1783-.3707-.2905-.1242-.1122-.2184-.2264-.2825-.3506-.0661-.1222-.1182-.2645-.1563-.4208-.0401-.1563-.0601-.3286-.0601-.5189,0-.7794.2965-1.4125.8856-1.8914.5891-.4789,1.3765-.7193,2.3682-.7193,1.1801,0,2.1779.3647,2.9894,1.1l-.9196,1.4847c-.8395-.585-1.5708-.8776-2.1939-.8776-.2805,0-.5029.0521-.6692.1523-.1683.1022-.2504.2585-.2504.4708,0,.1964.0862.3506.2605.4548.1743.1082.4929.2264.9537.3566.3586.1102.6552.2064.8856.2865.2304.0781.4668.1723.7073.2765.2424.1062.4328.2164.575.3266.1382.1102.2665.2404.3867.3887.1182.1463.2004.3126.2525.4989.0501.1863.0761.3947.0761.6251,0,.7874-.2865,1.4065-.8575,1.8573-.573.4528-1.3464.6772-2.3202.6772"/>
    <path class="uuid-57437419-71f7-47a9-ab79-aa5aef59d87e" d="M34.1005,52.8118c0-.539.0942-1.0519.2845-1.5368.1863-.4849.4528-.9156.7974-1.2903.3466-.3727.7854-.6712,1.3184-.8896.533-.2184,1.124-.3286,1.7692-.3286.6432,0,1.2282.1102,1.7612.3286.531.2184.9677.5169,1.3164.8896.3486.3747.6171.8054.8054,1.2903.1863.4849.2805.9978.2805,1.5368,0,.537-.0942,1.0479-.2805,1.5327-.1883.4849-.4568.9116-.8014,1.2843-.3466.3707-.7814.6672-1.3144.8876-.531.2184-1.12.3286-1.7672.3286-.6452,0-1.2362-.1102-1.7692-.3286-.533-.2204-.9717-.5169-1.3184-.8876-.3446-.3727-.6111-.7994-.7974-1.2843-.1903-.4849-.2845-.9958-.2845-1.5327M38.27,54.8474c.4929,0,.9016-.1923,1.2282-.573.3246-.3807.4889-.8696.4889-1.4626,0-.6011-.1623-1.092-.4849-1.4646-.3246-.3747-.7333-.561-1.2322-.561-.4969,0-.9096.1883-1.2402.569-.3306.3767-.4969.8636-.4969,1.4566,0,.6031.1643,1.094.4929,1.4706s.7433.565,1.2442.565Z"/>
    <path class="uuid-57437419-71f7-47a9-ab79-aa5aef59d87e" d="M43.5254,53.8997v-4.9809h2.3743v4.46c0,.4728.0942.8355.2825,1.09.1903.2525.4568.3807.8034.3807.7153,0,1.2823-.3787,1.7031-1.13v-4.8006h2.3743v5.1412c0,.2344.0361.4027.1102.5029.0761.0982.2064.1543.3887.1703v1.9675c-.3907.0761-.7273.1162-1.0058.1162-.4147,0-.7473-.0862-.9958-.2565-.2484-.1723-.4027-.4167-.4608-.7353l-.0421-.4708c-.6912.9958-1.7231,1.4927-3.0976,1.4927-.7934,0-1.3965-.2504-1.8112-.7534-.4167-.5009-.6231-1.2342-.6231-2.1939"/>
    <polyline class="uuid-57437419-71f7-47a9-ab79-aa5aef59d87e" points="54.9158 56.7007 52.1569 48.9168 54.6052 48.9168 56.3123 54.5649 58.0134 48.9168 60.2353 48.9168 57.5004 56.7007 54.9158 56.7007"/>
    <path class="uuid-57437419-71f7-47a9-ab79-aa5aef59d87e" d="M64.8616,56.845c-.6371,0-1.2222-.1082-1.7551-.3226-.533-.2144-.9757-.5029-1.3244-.8656-.3486-.3606-.6211-.7794-.8155-1.2603-.1923-.4769-.2905-.9778-.2905-1.5047,0-.559.0962-1.09.2865-1.5888.1923-.5009.4608-.9377.8074-1.3144.3486-.3747.7894-.6752,1.3224-.8936.533-.2204,1.122-.3286,1.7692-.3286s1.2362.1082,1.7672.3286c.531.2184.9677.5149,1.3104.8856.3426.3727.6071.7994.7934,1.2783.1843.4809.2785.9878.2785,1.5247,0,.2464-.02.5009-.0601.7614h-5.7543c.0341.4969.2184.8876.555,1.1721.3346.2845.7293.4248,1.1821.4248.3566,0,.6932-.0862,1.0078-.2585.3146-.1743.5249-.3987.6371-.6732l2.0196.565c-.3146.6251-.7974,1.128-1.4486,1.5047s-1.4145.565-2.2881.565M63.1386,52.0885h3.3821c-.0481-.4869-.2284-.8776-.539-1.1721-.3126-.2945-.6952-.4428-1.1481-.4428-.4588,0-.8435.1483-1.1541.4428-.3126.2945-.4929.6852-.541,1.1721Z"/>
    <path class="uuid-57437419-71f7-47a9-ab79-aa5aef59d87e" d="M75.0279,50.9444c-.5951.01-1.122.1082-1.5788.2925-.4588.1863-.7894.4508-.9918.7954v4.6684h-2.3682v-7.784h2.1799v1.5708c.2705-.5149.6151-.9237,1.0359-1.2302.4208-.3025.8615-.4568,1.3324-.4608.2004,0,.3326.004.3907.014v2.1338"/>
    <path class="uuid-57437419-71f7-47a9-ab79-aa5aef59d87e" d="M81.0567,56.288c-.8595.3707-1.655.557-2.3883.557-.3106,0-.5891-.0361-.8435-.1102-.2525-.0781-.4809-.1923-.6812-.3526-.2004-.1583-.3566-.3767-.4688-.6472-.1142-.2725-.1703-.5931-.1703-.9597v-4.0613h-.9938v-1.7972h.9938v-2.4744h2.3743v2.4744h1.5848v1.7972h-1.5848v3.2438c0,.4809.2264.7233.6792.7233.2945,0,.6391-.0922,1.0359-.2765l.4628,1.8834"/>
  </g>
</svg>